<svg viewBox="0 0 80 80" fill="#fff" fill-rule="evenodd" xmlns="http://www.w3.org/2000/svg" xmlns:xlink="http://www.w3.org/1999/xlink"><defs><style>.a{fill:#358d5e;}.a,.b{fill-rule:evenodd;}.b{fill:#46bb7d;}.c{fill:#fff;}</style></defs><path class="a" d="M0,41.58C0,20.293,17.84,3.157,40,3.157S80,20.293,80,41.58,62.16,80,40,80,0,62.864,0,41.58Z"/><path class="b" d="M0,38.422C0,17.136,17.84,0,40,0S80,17.136,80,38.422,62.16,76.844,40,76.844,0,59.707,0,38.422Z"/><g transform="translate(19.072 17.493)"><path class="c" d="M235.015,3.538V19.556a.343.343,0,0,0,.343.343H257.31a.343.343,0,0,0,.343-.343V.344a.343.343,0,0,0-.392-.34L235.309,3.2A.343.343,0,0,0,235.015,3.538Z" transform="translate(-215.802 0)"/><path class="c" d="M16.953,285.051a.343.343,0,0,0,.343-.343V268.933a.343.343,0,0,0-.343-.343H.5a.343.343,0,0,0-.343.343v13.52a.343.343,0,0,0,.3.34l16.455,2.255Z" transform="translate(-0.141 -246.632)"/><path class="c" d="M.358,60.255H16.811a.343.343,0,0,0,.343-.343V44.292a.343.343,0,0,0-.389-.34L.3,46.188a.343.343,0,0,0-.3.34L.015,59.912A.343.343,0,0,0,.358,60.255Z" transform="translate(0 -40.355)"/><path class="c" d="M257.309,288.489a.343.343,0,0,0,.343-.343l.005-19.213a.343.343,0,0,0-.343-.343H235.357a.343.343,0,0,0-.343.343v16.124a.343.343,0,0,0,.3.34l21.952,3.088A.348.348,0,0,0,257.309,288.489Z" transform="translate(-215.801 -246.632)"/></g></svg>