<svg xmlns="http://www.w3.org/2000/svg" xmlns:xlink="http://www.w3.org/1999/xlink" viewBox="0 0 85 85" fill="#fff" fill-rule="evenodd" stroke="#000" stroke-linecap="round" stroke-linejoin="round"><use xlink:href="#A" x="2.5" y="2.5"/><symbol id="A" overflow="visible"><g stroke="none"><path d="M0 41.58C0 20.293 17.84 3.157 40 3.157S80 20.293 80 41.58 62.16 80 40 80 0 62.864 0 41.58z" fill="#358d5e"/><path d="M0 38.422C0 17.136 17.84 0 40 0s40 17.136 40 38.422-17.84 38.422-40 38.422S0 59.707 0 38.422z" fill="#46BB7D"/>
      <path d="M 28.746 19.182 L 28.746 28.5 L 18.152 28.5 C 17.675 28.5 17.218 28.688 16.882 29.024 C 16.546 29.36 16.356 29.824 16.356 30.289 L 16.356 30.289 L 16.356 55.042 C 16.356 55.516 16.546 55.972 16.882 56.306 C 17.218 56.64 17.676 56.83 18.152 56.83 L 36.126 56.83 C 36.602 56.83 37.059 56.642 37.397 56.306 C 37.734 55.971 37.923 55.506 37.923 55.042 L 37.923 55.042 L 37.923 52.407 L 59.113 52.407 L 59.113 50.525 C 59.113 49.301 54.763 48.265 48.897 47.985 L 48.897 45.159 L 64.127 45.159 L 64.127 19.182 Z M 27.138 55.982 C 26.526 55.982 25.974 55.615 25.74 55.052 C 25.505 54.489 25.635 53.84 26.068 53.411 C 26.502 52.981 27.151 52.852 27.717 53.085 C 28.283 53.318 28.651 53.867 28.651 54.475 C 28.656 54.875 28.498 55.262 28.213 55.545 C 27.927 55.828 27.539 55.985 27.137 55.98 Z M 34.328 52.122 L 20.044 52.122 L 20.044 32.169 L 34.328 32.169 Z M 43.882 47.982 C 41.886 48.05 39.896 48.238 37.922 48.547 L 37.922 45.065 L 43.882 45.065 Z M 60.532 41.488 L 38.016 41.488 L 38.016 30.288 C 38.016 29.814 37.826 29.358 37.49 29.023 C 37.154 28.688 36.696 28.499 36.22 28.499 L 32.53 28.499 L 32.53 22.946 L 60.626 22.946 L 60.626 41.486 Z"/></g></symbol></svg>