<svg viewBox="0 0 80 80" fill="#fff" fill-rule="evenodd" xmlns="http://www.w3.org/2000/svg" xmlns:xlink="http://www.w3.org/1999/xlink"><defs><style>.a{fill:#aa3e3e;}.a,.b{fill-rule:evenodd;}.b{fill:#fa5b5a;}.c{fill:#fff;}</style></defs><path class="a" d="M0,41.58C0,20.293,17.84,3.157,40,3.157S80,20.293,80,41.58,62.16,80,40,80,0,62.864,0,41.58Z"/><path class="b" d="M0,38.422C0,17.136,17.84,0,40,0S80,17.136,80,38.422,62.16,76.844,40,76.844,0,59.707,0,38.422Z"/><path class="c" d="M29.826,22.417c2.938,0,7.192-.607,7.192-4.1a3.288,3.288,0,0,0-.075-.8l-1.751-7.6c-.4-1.673-.756-2.431-3.693-3.9-2.279-1.164-7.244-3.089-8.712-3.089-1.366,0-1.764,1.762-3.395,1.762-1.569,0-2.733-1.315-4.2-1.315-1.41,0-2.329.959-3.037,2.936,0,0-1.975,5.571-2.23,6.379a1.509,1.509,0,0,0-.052.456c0,2.165,8.527,9.267,19.954,9.267m7.641-2.674a11.665,11.665,0,0,1,.406,2.379c0,3.288-3.7,5.114-8.557,5.114C18.333,27.235,8.71,20.8,8.71,16.545a4.334,4.334,0,0,1,.354-1.723c-3.948.2-9.064.9-9.064,5.418,0,7.395,17.522,16.509,31.395,16.509,10.638,0,13.319-4.81,13.319-8.607,0-2.99-2.584-6.381-7.242-8.406" transform="translate(17.643 20.165)"/></svg>