<svg viewBox="0 0 80 80" fill="#fff" fill-rule="evenodd" xmlns="http://www.w3.org/2000/svg" xmlns:xlink="http://www.w3.org/1999/xlink"><path d="M0,41.58C0,20.293,17.84,3.157,40,3.157S80,20.293,80,41.58,62.16,80,40,80,0,62.864,0,41.58Z" fill="#358d5e" fill-rule="evenodd"/><path d="M0,38.422C0,17.136,17.84,0,40,0S80,17.136,80,38.422,62.16,76.844,40,76.844,0,59.707,0,38.422Z" fill="#46bb7d" fill-rule="evenodd"/><path d="M24.683,3l-5,5.012h3.337v10l1.668,1.668,1.668-1.668v-10h3.337ZM9.674,9.674v6.674l2.157-2.157,7.162,7.162h2.359V18.993L14.19,11.831l2.157-2.157Zm9.033,0-2.157,2.157,4.8,4.8V9.674Zm9.32,0v6.96l4.8-4.8L30.672,9.674Zm5.005,0,2.157,2.157-7.162,7.162v2.359h2.359l7.162-7.162,2.157,2.157V9.674Zm-21.2,6.876L9.674,18.707v2.646h6.96Zm25.717,0-4.8,4.8h6.96V18.707ZM8.012,19.684,3,24.7l5.012,5V26.358h10l1.668-1.668-1.668-1.668h-10Zm33.355,0v3.337h-10l-1.668,1.668,1.668,1.668h10v3.337l5.012-5.012ZM9.674,28.026v2.646l2.157,2.157,4.8-4.8Zm9.32,0-7.162,7.162L9.674,33.031v6.674h6.674L14.19,37.548l7.162-7.162V28.026Zm9.033,0v2.359l7.162,7.162-2.157,2.157h6.674V33.031l-2.157,2.157-7.162-7.162Zm4.718,0,4.8,4.8,2.157-2.157V28.026Zm-8.055,1.668-1.668,1.668v10H19.684L24.7,46.379l5-5.012H26.358v-10Zm-3.337,3.05-4.8,4.8,2.157,2.157h2.646Zm6.674,0v6.96h2.646l2.157-2.157Z" transform="translate(15.311 13.733)" fill="#fff"/></svg>