<svg viewBox="0 0 80 80" fill="#fff" fill-rule="evenodd" xmlns="http://www.w3.org/2000/svg" xmlns:xlink="http://www.w3.org/1999/xlink">
  <g id="Group_1" data-name="Group 1">
    <path id="Path_1" data-name="Path 1" d="M0,41.58C0,20.293,17.84,3.157,40,3.157S80,20.293,80,41.58,62.16,80,40,80,0,62.864,0,41.58Z" fill="#aa3e3e" fill-rule="evenodd"/>
    <path id="Path_2" data-name="Path 2" d="M0,38.422C0,17.136,17.84,0,40,0S80,17.136,80,38.422,62.16,76.844,40,76.844,0,59.707,0,38.422Z" fill="#fa5b5a" fill-rule="evenodd"/>
    <path id="Path_3" data-name="Path 3" d="M29.524,29.9c-.943,0,.189.472,1.415.66a9.989,9.989,0,0,0,.92-.778,7.074,7.074,0,0,1-2.334.118m5.046-1.25a6.574,6.574,0,0,0,1.108-2.5,6.32,6.32,0,0,1-.778,1.721c-1.768,1.108-.165-.637,0-1.32-1.886,2.382-.259,1.415-.33,2.1m1.839-4.834c.118-1.7-.33-1.179-.472-.519.165.094.307,1.179.472.519M25.987.731c.472.094,1.061.165.99.283.542-.118.66-.236-1.014-.283m1.014.283-.354.071.33-.024V1.014M42.587,24.452c.047,1.509-.472,2.24-.9,3.537l-.825.424c-.66,1.273.071.825-.4,1.839-1.038.92-3.16,2.877-3.82,3.065-.472,0,.33-.59.448-.8-1.391.943-1.132,1.415-3.23,2l-.071-.141c-5.235,2.452-12.5-2.405-12.379-9.055-.071.4-.165.307-.283.472a8.371,8.371,0,0,1,4.716-8.253,7.923,7.923,0,0,1,8.8,1.132,7.876,7.876,0,0,0-6.414-3.065,7.23,7.23,0,0,0-6.249,3.7c-1.415.9-1.58,3.466-2.193,3.914C18.937,29.357,21.342,32,25.4,35.11c.637.448.189.5.283.825A11.083,11.083,0,0,1,22.073,33.2a9.077,9.077,0,0,0,1.886,2.146c-1.3-.424-2.995-3.065-3.49-3.183,2.193,3.914,8.913,6.885,12.4,5.423a14.619,14.619,0,0,1-5.494-.66c-.778-.377-1.816-1.2-1.651-1.344A13.676,13.676,0,0,0,39.64,33.6c1.038-.825,2.193-2.217,2.523-2.24-.472.755.094.377-.283,1.038,1.038-1.7-.472-.707,1.085-2.924l.566.778c-.212-1.415,1.745-3.113,1.556-5.329.448-.707.472.707,0,2.287.684-1.745.189-2,.354-3.443a11.2,11.2,0,0,1,.542,1.486c-.424-1.651.472-2.83.66-3.773-.212-.118-.66.707-.755-1.25,0-.872.236-.472.33-.66a3.807,3.807,0,0,1-.9-2.028c.189-.307.519.778.8.8a15.179,15.179,0,0,1-.472-2.547c-.8-1.6-.283.236-.943-.707-.8-2.57.707-.589.8-1.745a20.151,20.151,0,0,1,2.311,5.8A22.532,22.532,0,0,0,46.667,15c.377.165-.613-2.924.5-.872a18.439,18.439,0,0,0-8.63-10.352c.424.4.99.92.778.99-1.768-1.061-1.462-1.132-1.721-1.58-1.438-.589-1.533.047-2.5,0-2.735-1.462-3.254-1.3-5.753-2.24l.118.542c-1.816-.589-2.122.236-4.079,0-.118-.094.637-.33,1.25-.424-1.745.236-1.651-.33-3.372.071a11.649,11.649,0,0,1,1.3-.755c-1.415.094-3.4.825-2.782.165C19.432,1.6,15.306,3.065,12.995,5.235l-.071-.519c-1.061,1.273-4.622,3.8-4.9,5.447l-.307.071c-.542.943-.9,2-1.344,2.971-.707,1.226-1.061.472-.943.66a45.2,45.2,0,0,0-2.735,7.31c.424.637,0,3.891.165,6.508-.707,12.875,9.055,25.4,19.713,28.3a21.845,21.845,0,0,0,5.871.589c-2.334-.66-2.641-.354-4.9-1.155-1.651-.755-2-1.651-3.16-2.665l.472.825c-2.287-.8-1.344-.99-3.207-1.58l.5-.637a4.3,4.3,0,0,1-2.287-1.91l-.8.024c-.967-1.179-1.486-2.051-1.438-2.735l-.259.472c-.307-.5-3.584-4.48-1.886-3.561a3.812,3.812,0,0,1-1.179-1.3l.33-.4a6.612,6.612,0,0,1-1.462-2.83,1.864,1.864,0,0,0,1.061.778c-2.075-5.117-2.193-.283-3.773-5.188l.354-.047a11.529,11.529,0,0,1-.613-1.2l.141-1.415C4.836,30.3,5.9,24.735,6.109,21.67,6.274,20.4,7.359,19.076,8.184,17l-.5-.094c.943-1.674,5.518-6.767,7.64-6.508,1.014-1.3-.212,0-.424-.33,2.264-2.334,2.971-1.651,4.48-2.075,1.651-.943-1.415.377-.637-.354,2.83-.707,2-1.651,5.706-2,.377.236-.92.33-1.226.613,2.358-1.155,7.428-.872,10.752.637,3.844,1.816,8.159,7.1,8.324,12.1l.189.047c-.094,2,.307,4.292-.4,6.39l.472-.99M19.291,31.2l-.118.66a13.312,13.312,0,0,0,1.886,2.382c-.566-1.108-.99-1.556-1.768-3.065m1.462-.047a4.966,4.966,0,0,1-.731-1.226,7.7,7.7,0,0,0,1.014,2.075l-.283-.849m25.8-5.612-.165.354a16.537,16.537,0,0,1-1.627,5.211,15.529,15.529,0,0,0,1.768-5.565M26.152.283A22.344,22.344,0,0,1,28.392,0C27.52.071,26.647.118,25.8.236l.354.047M3.893,12.12c.165,1.344-1.014,1.886.259.99.707-1.556-.259-.424-.236-.99M2.407,18.392a19.91,19.91,0,0,0,.472-1.981c-.825,1.038-.4,1.25-.472,1.957" transform="translate(14.909 11.716)" fill="#fff" fill-rule="evenodd"/>
  </g>
</svg>
