<svg xmlns="http://www.w3.org/2000/svg" xmlns:xlink="http://www.w3.org/1999/xlink" viewBox="0 0 85 85" fill="#fff" fill-rule="evenodd" stroke="#000" stroke-linecap="round" stroke-linejoin="round"><use xlink:href="#A" x="2.5" y="2.5"/><symbol id="A" overflow="visible"><g stroke="none"><path d="M0 41.58C0 20.293 17.84 3.157 40 3.157S80 20.293 80 41.58 62.16 80 40 80 0 62.864 0 41.58z" fill="#358d5e"/><path d="M0 38.422C0 17.136 17.84 0 40 0s40 17.136 40 38.422-17.84 38.422-40 38.422S0 59.707 0 38.422z" fill="#46BB7D"/>
<path id="C" d="M 51.061 51.113 L 61.456 59.584 C 61.901 59.943 62.513 60.016 63.029 59.77 C 63.545 59.524 63.876 59.005 63.878 58.433 L 63.878 33.669 C 63.874 33.097 63.545 32.578 63.029 32.333 C 62.513 32.087 61.901 32.16 61.456 32.517 L 50.774 41.223" style="fill: rgb(255, 255, 255);"/>
      <path id="D" d="M 19.256 23.017 C 19.256 20.038 21.655 17.64 24.634 17.64 C 27.613 17.64 30.011 20.038 30.011 23.017 C 30.011 25.996 27.613 28.394 24.634 28.394 C 21.656 28.394 19.256 25.996 19.256 23.017 Z" style="fill: rgb(255, 255, 255);"/>
      <path id="E" d="M 37.558 23.017 C 37.558 20.038 39.957 17.64 42.937 17.64 C 45.916 17.64 48.31 20.038 48.31 23.017 C 48.31 25.996 45.911 28.394 42.932 28.394 C 39.953 28.394 37.555 25.996 37.555 23.018 Z" style="fill: rgb(255, 255, 255);"/>
      <path id="F" d="M 48.082 59.567 L 19.537 59.567 C 17.89 59.567 16.556 58.232 16.556 56.587 L 16.556 35.517 C 16.556 33.871 17.89 32.537 19.537 32.537 L 48.081 32.537 C 49.727 32.537 51.061 33.871 51.061 35.516 L 51.061 56.585 C 51.061 58.23 49.727 59.565 48.081 59.566 Z" style="fill: rgb(255, 255, 255);"/>
</g></symbol></svg>