<svg xmlns="http://www.w3.org/2000/svg" xmlns:xlink="http://www.w3.org/1999/xlink" viewBox="0 0 85 85" fill="#fff" fill-rule="evenodd" stroke="#000" stroke-linecap="round" stroke-linejoin="round"><use xlink:href="#A" x="2.5" y="2.5"/><symbol id="A" overflow="visible"><g stroke="none"><path d="M0 41.58C0 20.293 17.84 3.157 40 3.157S80 20.293 80 41.58 62.16 80 40 80 0 62.864 0 41.58z" fill="#b1a84b"/><path d="M0 38.422C0 17.136 17.84 0 40 0s40 17.136 40 38.422-17.84 38.422-40 38.422S0 59.707 0 38.422z" fill="#E8DE65"/><path d="M 20.835 22.859 L 18.677 23.882 L 18.677 52.709 L 20.835 53.731 L 29.574 39.043 L 20.835 22.859 Z" style="fill: rgb(179, 179, 179);"/>
      <path d="M 25.868 52.614 L 20.835 53.731 L 20.835 22.859 L 25.868 23.948 L 25.868 52.615 Z" style="fill: rgb(255, 255, 255);"/>
      <path d="M 23.216 21.729 L 25.868 20.481 L 38.463 39.593 L 25.868 56.109 L 23.216 54.861 L 23.216 21.729 Z" style="fill: rgb(179, 179, 179);"/>
      <path d="M 32.144 54.431 L 25.869 56.109 L 25.869 20.481 L 32.144 22.166 L 32.144 54.431 Z" style="fill: rgb(255, 255, 255);"/>
      <path d="M 28.824 19.076 L 32.144 17.511 L 50.724 41.677 L 32.144 59.085 L 28.824 57.514 L 28.824 19.076 Z" style="fill: rgb(179, 179, 179);"/>
      <path d="M 40.193 56.3 L 32.137 59.085 L 32.137 17.511 L 40.193 20.302 L 40.193 56.3 Z" style="fill: rgb(255, 255, 255);"/>
      <path d="M 35.9 15.73 L 40.199 13.698 L 60.308 39.687 L 40.199 62.892 L 35.906 60.86 L 35.906 15.73 Z" style="fill: rgb(179, 179, 179);"/>
      <path d="M 61.721 52.703 L 40.199 62.892 L 40.199 13.698 L 61.721 23.887 L 61.721 52.703 Z" style="fill: rgb(255, 255, 255);"/></g></symbol></svg>