<svg viewBox="0 0 80 80" fill="#fff" fill-rule="evenodd" xmlns="http://www.w3.org/2000/svg" xmlns:xlink="http://www.w3.org/1999/xlink"><defs><style>.a{fill:#aa3e3e;}.a,.b{fill-rule:evenodd;}.b{fill:#fa5b5a;}.c{fill:#fff;}</style></defs><path class="a" d="M0,41.58C0,20.293,17.84,3.157,40,3.157S80,20.293,80,41.58,62.16,80,40,80,0,62.864,0,41.58Z"/><path class="b" d="M0,38.422C0,17.136,17.84,0,40,0S80,17.136,80,38.422,62.16,76.844,40,76.844,0,59.707,0,38.422Z"/><g transform="translate(-2.497 14.723)"><path class="c" d="M61.482,38.057c-1.39-.569-1.985-1.325-1.927-2.452a3.759,3.759,0,0,0-1.042-2.66,11.53,11.53,0,0,0,0-6.106c-.9-2.631-3.656-6.649-6.5-10.6-1.163-1.622-1.218-3.385-1.282-5.427A16.5,16.5,0,0,0,49.519,4.2a6.835,6.835,0,0,0-6.5-4.2,8.9,8.9,0,0,0-4.944,1.5c-2.839,1.96-2.464,6.232-2.216,9.059.034.387.066.753.085,1.065a14.01,14.01,0,0,1-.182,4.672,19.179,19.179,0,0,1-1.417,1.988c-.686.9-1.463,1.927-2.1,2.881a22.568,22.568,0,0,0-1.968,4.6,22.054,22.054,0,0,1-1.244,3.115,4.242,4.242,0,0,0-.411,3.187,3.274,3.274,0,0,0-1.05,1.33c-.422.9-1.279,1.386-3.062,1.728a2.36,2.36,0,0,0-1.679,1.024,2.9,2.9,0,0,0,.018,2.319,3.608,3.608,0,0,1-.239,2.615c-.082.249-.176.531-.27.843a1.519,1.519,0,0,0,.159,1.327c.673,1.029,2.637,1.392,4.659,1.631a17.957,17.957,0,0,1,3.806,1.093,17.868,17.868,0,0,0,3.724,1.074,4.232,4.232,0,0,0,.527.034,3.1,3.1,0,0,0,2.834-1.663,31.5,31.5,0,0,1,5.108-.6,22.186,22.186,0,0,1,5.078.522,4.085,4.085,0,0,0,1.53,1.667,3.712,3.712,0,0,0,1.721.388h0a4.15,4.15,0,0,0,3.025-1.249c1.031-1.092,3.606-2.487,5.486-3.5.42-.227.812-.44,1.156-.632a2.587,2.587,0,0,0,1.581-2.3A1.941,1.941,0,0,0,61.482,38.057ZM38.1,37.847c-.131-.926-1.323-1.845-2.7-2.908a9.56,9.56,0,0,1-2.759-2.69c-.728-1.722-.154-4.75.847-6.31a16.023,16.023,0,0,0,1.289-3.11,11.177,11.177,0,0,1,1.346-3.074,7.845,7.845,0,0,0,1.613-3.913,4.884,4.884,0,0,0,2.882,1.567,1.7,1.7,0,0,0,.463-.063,15.571,15.571,0,0,0,2.761-1.39,11.8,11.8,0,0,1,2.346-1.179c.692.994,4.713,9.892,5.124,12.75a13.512,13.512,0,0,1-.191,4.863,3.577,3.577,0,0,0-.479-.034c-1.12,0-1.417.611-1.494.976a39.534,39.534,0,0,0-.222,4.663,9.266,9.266,0,0,1-5.394,3.373,23.352,23.352,0,0,1-3.324.262,11.231,11.231,0,0,1-1.64-.1l-1.478-1.691A1.8,1.8,0,0,0,38.1,37.847ZM39.973,9.969q-.069.03-.136.064a2.753,2.753,0,0,0-.031-.3,1.723,1.723,0,0,0-1.464-1.6,1.034,1.034,0,0,0-.158.012,1.225,1.225,0,0,0-.9.81c.154-.955.695-1.662,1.337-1.662.754,0,1.39,1.016,1.39,2.218A3.281,3.281,0,0,1,39.973,9.969Zm5.857.716a2.353,2.353,0,0,0,.106-.7,1.769,1.769,0,0,0-1.574-1.944A1.788,1.788,0,0,0,42.8,9.981q0,.11.01.219l-.134-.051a2.972,2.972,0,0,1-.15-.935A2.159,2.159,0,0,1,44.381,6.85a2.16,2.16,0,0,1,1.857,2.364A2.783,2.783,0,0,1,45.83,10.685Zm-.755,2.537c-.015.066-.046.1-.393.276-.175.091-.393.2-.667.371l-.182.11a16.9,16.9,0,0,1-2.916,1.547c-.317.043-.512-.08-.953-.379-.1-.068-.2-.139-.318-.212a3.734,3.734,0,0,1-1.362-1.319c.259-.2.9-.7,1.228-1a3.549,3.549,0,0,1,1.669-1.036.263.263,0,0,1,.05,0,16.609,16.609,0,0,1,2.055.733c.325.13.605.242.8.312A1.923,1.923,0,0,1,45.074,13.222Zm5.586,28.963a23.013,23.013,0,0,0,.689-5c-.015-.288-.041-.6-.065-.905a8.325,8.325,0,0,1-.044-1.66.3.3,0,0,1,.047-.017c0,.725.161,2.172,1.318,2.677a2.915,2.915,0,0,0,1.171.227,4.783,4.783,0,0,0,2.972-1.1,5.407,5.407,0,0,0,.754-.99,1.2,1.2,0,0,1,.052.467A3.345,3.345,0,0,0,59,38.9l.144.076c.352.185,1.289.676,1.3.91a.207.207,0,0,1-.06.076A13.514,13.514,0,0,1,58.525,41a16.24,16.24,0,0,0-3.742,2.3,5.112,5.112,0,0,1-2.856,1.785.75.75,0,0,1-.227-.032C50.948,44.82,50.328,43.734,50.661,42.185ZM25,38.149a2.108,2.108,0,0,1-.072-.918c.047-.2,1.052-.422,1.481-.515a5.774,5.774,0,0,0,1.636-.514,3.317,3.317,0,0,0,1.114-1.495,2.322,2.322,0,0,1,.622-.934.132.132,0,0,1,.072-.017c.439,0,1.361.924,1.892,1.75.135.208.384.626.673,1.109A35.465,35.465,0,0,0,35.084,40.7c.557.6,1.457,1.743,1.236,2.726a2.986,2.986,0,0,1-1.23,1.521,1.26,1.26,0,0,1-.273.025,17.475,17.475,0,0,1-4.779-1.512l-.186-.078a15.149,15.149,0,0,0-2.956-.659,9.655,9.655,0,0,1-2.289-.515c-.162-.182.026-.774.192-1.3a8.4,8.4,0,0,0,.311-1.169A4.256,4.256,0,0,0,25,38.149Z"/></g></svg>