<svg viewBox="0 0 80 80" fill="#fff" fill-rule="evenodd" xmlns="http://www.w3.org/2000/svg" xmlns:xlink="http://www.w3.org/1999/xlink"><defs><style>.a{fill:#358d5e;}.a,.b{fill-rule:evenodd;}.b{fill:#46bb7d;}.c{fill:#fff;}</style></defs><path class="a" d="M0,41.58C0,20.293,17.84,3.157,40,3.157S80,20.293,80,41.58,62.16,80,40,80,0,62.864,0,41.58Z"/><path class="b" d="M0,38.422C0,17.136,17.84,0,40,0S80,17.136,80,38.422,62.16,76.844,40,76.844,0,59.707,0,38.422Z"/><g transform="translate(13.494 17.864)"><g transform="translate(14.019 6.601)"><g transform="translate(0)"><path class="c" d="M102.859,92.717a9.931,9.931,0,0,1,3.807-7.824l-3.544-5.673a16.634,16.634,0,0,0-6.26,8.816,5.98,5.98,0,0,1,.18,9.938,16.629,16.629,0,0,0,6.225,8.342l3.3-5.863A9.912,9.912,0,0,1,102.859,92.717Z" transform="translate(-96.861 -79.22)"/></g></g><g transform="translate(6.489 16.148)"><path class="c" d="M15.09,198.089a4.3,4.3,0,1,1-4.3-4.3A4.3,4.3,0,0,1,15.09,198.089Z" transform="translate(-6.489 -193.791)"/></g><g transform="translate(22.628 21.123)"><path class="c" d="M216.777,263.214a5.937,5.937,0,0,1,2.769.679,16.55,16.55,0,0,0,4.517-10.268l-6.678-.129a9.948,9.948,0,0,1-13.9,8.07l-3.32,5.808a16.652,16.652,0,0,0,10.649,1.367A5.977,5.977,0,0,1,216.777,263.214Z" transform="translate(-200.168 -253.496)"/></g><g transform="translate(34.938 32.519)"><path class="c" d="M356.5,394.554a4.3,4.3,0,1,1-4.3-4.3A4.3,4.3,0,0,1,356.5,394.554Z" transform="translate(-347.9 -390.255)"/></g><g transform="translate(22.565 3.494)"><path class="c" d="M219.319,47.613a5.976,5.976,0,0,1-9.427-4.879c0-.175.008-.345.021-.515a16.651,16.651,0,0,0-10.492,1.44l3.3,5.812a9.944,9.944,0,0,1,13.963,7.905l6.678-.2A16.53,16.53,0,0,0,219.319,47.613Z" transform="translate(-199.421 -41.928)"/></g><g transform="translate(34.714)"><path class="c" d="M353.816,4.3a4.3,4.3,0,1,1-4.3-4.3A4.3,4.3,0,0,1,353.816,4.3Z" transform="translate(-345.221)"/></g></g></svg>